P3
12 12
255
0 0 0 21 0 0 42 0 0 63 0 0 85 0 0 106 0 0 127 0 0 148 0 0 170 0 0 191 0 0 212 0 0 233 0 0 
0 21 0 21 21 0 42 21 0 63 21 0 85 21 0 106 21 0 127 21 0 148 21 0 170 21 0 191 21 0 212 21 0 233 21 0 
0 42 0 21 42 0 42 42 0 63 42 0 85 42 0 106 42 0 127 42 0 148 42 0 170 42 0 191 42 0 212 42 0 233 42 0 
0 63 0 21 63 0 42 63 0 63 63 0 85 63 0 106 63 0 127 63 0 148 63 0 170 63 0 191 63 0 212 63 0 233 63 0 
0 85 0 21 85 0 42 85 0 63 85 0 85 85 0 106 85 0 127 85 0 148 85 0 170 85 0 191 85 0 212 85 0 233 85 0 
0 106 0 21 106 0 42 106 0 63 106 0 85 106 0 106 106 0 127 106 0 148 106 0 170 106 0 191 106 0 212 106 0 233 106 0 
0 127 0 21 127 0 42 127 0 63 127 0 85 127 0 106 127 0 127 127 0 148 127 0 170 127 0 191 127 0 212 127 0 233 127 0 
0 148 0 21 148 0 42 148 0 63 148 0 85 148 0 106 148 0 127 148 0 148 148 0 170 148 0 191 148 0 212 148 0 233 148 0 
0 170 0 21 170 0 42 170 0 63 170 0 85 170 0 106 170 0 127 170 0 148 170 0 170 170 0 191 170 0 212 170 0 233 170 0 
0 191 0 21 191 0 42 191 0 63 191 0 85 191 0 106 191 0 127 191 0 148 191 0 170 191 0 191 191 0 212 191 0 233 191 0 
0 212 0 21 212 0 42 212 0 63 212 0 85 212 0 106 212 0 127 212 0 148 212 0 170 212 0 191 212 0 212 212 0 233 212 0 
0 233 0 21 233 0 42 233 0 63 233 0 85 233 0 106 233 0 127 233 0 148 233 0 170 233 0 191 233 0 212 233 0 233 233 0 

